# xmcd
#
# Track frame offsets:
#   150
#   8778
#   29520
#   50149
#   69255
#   92977
#   112073
#   129588
#   146901
#   161237
#   184545
#   203410
#   213059
#   233235
#   253654
#
# Disc length: 3611 seconds
#
# Revision: 0
# Processed by: cddbd v1.5.2PL0 Copyright (c) Steve Scherf et al.
# Submitted via: GXTranscoder 2.0.1939
#
DISCID=d80e190f
DTITLE=Alicia Keys - As I am
DYEAR=1900
DGENRE=R and B
TTITLE0=As I am (Intro)
TTITLE1=Go Ahead
TTITLE2=Superwoman
TTITLE3=No One
TTITLE4=Like You'll Never See Me Again
TTITLE5=Lesson Learned
TTITLE6=Wreckless Love
TTITLE7=The Thing About Love
TTITLE8=Teenage Love Affair
TTITLE9=I Need You
TTITLE10=Where Do We Go From Here
TTITLE11=Prelude To A Kiss
TTITLE12=Tell You Something
TTITLE13=Sure Looks Good To Me
TTITLE14=Waiting For Your Love
EXTD=
EXTT0=
EXTT1=
EXTT2=
EXTT3=
EXTT4=
EXTT5=
EXTT6=
EXTT7=
EXTT8=
EXTT9=
EXTT10=
EXTT11=
EXTT12=
EXTT13=
EXTT14=
PLAYORDER=
